<?xml version="1.0" standalone="no"?>
<!DOCTYPE svg PUBLIC "-//W3C//DTD SVG 20010904//EN"
 "http://www.w3.org/TR/2001/REC-SVG-20010904/DTD/svg10.dtd">
<svg version="1.0" xmlns="http://www.w3.org/2000/svg"
 width="512.000000pt" height="512.000000pt" viewBox="0 0 512.000000 512.000000"
 preserveAspectRatio="xMidYMid meet">

<g transform="translate(0.000000,512.000000) scale(0.100000,-0.100000)"
fill="#dd0054" stroke="none">
<path d="M1450 4395 c-6 -8 -54 -88 -105 -177 l-93 -163 -246 -3 -246 -2 0
-149 c0 -165 23 -479 46 -641 48 -332 165 -686 311 -944 56 -98 171 -276 179
-276 9 0 104 82 104 90 0 4 -19 36 -41 71 -298 460 -418 877 -444 1541 l-6
158 212 2 213 3 66 113 c37 62 72 118 78 124 15 15 54 -23 162 -151 l75 -90
115 0 115 -1 35 66 c19 36 58 91 85 120 l50 55 79 -62 c52 -40 84 -59 91 -53
114 86 182 114 275 114 86 0 157 -27 243 -93 l37 -29 75 56 c42 31 82 59 89
62 16 6 100 -106 142 -188 l24 -48 114 0 113 0 108 125 c61 70 116 124 124
123 7 -2 45 -58 83 -125 l69 -123 211 0 211 0 -6 -207 c-9 -321 -57 -622 -142
-880 -49 -149 -171 -410 -253 -540 l-51 -82 46 -40 c25 -23 52 -41 60 -41 18
0 119 156 188 292 179 349 269 725 305 1283 5 88 10 206 10 262 l0 103 -247 0
-248 0 -54 98 c-29 53 -76 135 -104 181 l-50 84 -61 -64 c-34 -36 -107 -115
-164 -177 -57 -62 -114 -115 -128 -118 -31 -8 -42 1 -124 111 -70 92 -99 125
-138 159 -22 19 -22 19 -100 -41 -42 -32 -83 -63 -89 -67 -7 -4 -41 6 -76 23
-134 64 -300 64 -438 0 l-68 -32 -91 72 -90 71 -33 -36 c-17 -20 -70 -84 -117
-142 -47 -58 -93 -110 -102 -116 -29 -17 -61 10 -208 175 -168 188 -164 184
-180 164z"/>
<path d="M2464 4001 c-54 -25 -108 -73 -128 -116 l-17 -35 -46 32 c-106 76
-138 98 -145 98 -23 0 -67 -107 -83 -202 l-6 -38 -181 0 -181 0 6 -127 c6
-122 36 -336 57 -395 14 -41 -5 -34 -38 15 -85 124 -143 301 -188 577 -9 58
-20 108 -23 112 -4 4 -29 -32 -56 -81 -49 -88 -51 -89 -94 -95 -24 -3 -70 -6
-102 -6 -31 0 -64 -3 -73 -6 -20 -8 -21 -59 -1 -224 18 -153 36 -246 75 -372
17 -53 30 -100 30 -104 0 -5 -36 27 -81 71 -80 79 -81 80 -74 45 17 -93 70
-285 102 -370 47 -128 159 -355 229 -463 l56 -87 76 69 c43 38 92 85 110 104
l34 35 -27 52 c-14 29 -24 58 -22 64 3 8 71 21 184 35 204 26 223 30 223 43 0
6 -25 46 -56 90 l-57 80 61 126 c33 70 93 204 132 297 101 239 155 339 220
405 152 156 373 106 492 -110 19 -36 66 -137 103 -225 37 -88 101 -231 141
-317 41 -87 74 -167 74 -178 0 -12 -16 -42 -35 -67 -58 -76 -71 -70 200 -104
94 -11 171 -22 173 -24 2 -2 -15 -35 -37 -75 -23 -40 -38 -76 -35 -81 3 -6 47
-44 97 -86 l91 -76 27 33 c35 41 144 253 198 384 57 137 132 400 131 459 -1
18 -12 11 -63 -43 -98 -103 -100 -104 -73 -23 55 161 99 424 94 560 l-3 78
-109 6 c-80 4 -112 9 -118 20 -5 8 -30 49 -54 92 -25 43 -48 77 -50 74 -3 -3
-12 -48 -20 -101 -19 -132 -48 -258 -84 -368 -29 -93 -102 -231 -136 -259 -16
-13 -17 -12 -11 11 34 141 67 389 67 506 l0 24 -182 2 -183 3 -8 55 c-9 62
-60 180 -78 180 -7 0 -49 -27 -95 -60 -45 -33 -87 -60 -93 -60 -5 0 -18 16
-27 35 -19 41 -80 92 -132 111 -53 19 -130 17 -178 -5z"/>
<path d="M2572 3648 c-8 -8 -12 -59 -12 -156 l0 -144 -27 6 c-74 18 -121 18
-157 1 -47 -23 -114 -97 -154 -172 -32 -62 -96 -240 -107 -304 -6 -34 -5 -36
37 -55 116 -52 254 -168 344 -291 l54 -71 247 -4 c208 -2 253 -6 278 -20 34
-19 241 -183 450 -358 l143 -119 101 6 c56 3 104 9 106 13 6 10 -77 88 -300
280 -110 95 -202 177 -204 183 -2 6 7 30 20 53 13 24 20 46 17 49 -3 3 -99 19
-214 36 -114 16 -210 31 -212 34 -6 5 -6 5 77 108 l63 78 -65 137 c-36 75 -93
205 -127 287 -77 185 -130 290 -175 343 -50 58 -158 105 -183 80z m190 -453
c15 -15 -16 -125 -52 -185 -22 -36 -47 -88 -56 -115 -20 -60 -37 -81 -71 -90
-38 -9 -79 12 -97 50 -9 18 -16 37 -16 43 0 5 -22 52 -49 104 -32 59 -52 113
-57 146 l-7 52 200 0 c110 0 202 -2 205 -5z m228 -384 c5 -11 10 -22 10 -25 0
-3 -42 -27 -92 -52 -51 -26 -123 -66 -160 -90 -38 -24 -68 -40 -68 -35 0 25
258 220 292 221 4 0 12 -9 18 -19z"/>
<path d="M2169 2373 c-65 -4 -66 -4 -174 -88 -165 -129 -510 -414 -599 -496
-45 -42 -87 -91 -97 -114 -67 -147 50 -319 216 -319 116 0 137 20 403 388
l152 210 0 97 0 98 128 72 c70 39 152 88 182 107 l55 36 -40 7 c-40 8 -101 8
-226 2z"/>
<path d="M2705 2354 c11 -8 95 -58 188 -111 l167 -95 0 -100 0 -100 152 -211
c206 -288 243 -334 292 -359 83 -43 216 -18 283 54 55 58 70 176 33 253 -27
56 -304 298 -659 574 l-142 111 -167 0 c-152 -1 -165 -2 -147 -16z"/>
<path d="M2525 2309 c-16 -11 -105 -63 -197 -116 l-168 -96 0 -238 0 -237 158
-90 c180 -103 236 -132 254 -132 7 0 99 51 203 113 l190 113 2 224 c2 124 0
230 -5 236 -9 15 -393 246 -404 243 -2 0 -16 -9 -33 -20z m27 -280 c-2 -68 -5
-125 -7 -127 -2 -2 -51 29 -109 68 -79 54 -103 76 -96 85 16 19 191 106 204
102 7 -3 10 -43 8 -128z"/>
<path d="M3005 1538 c-22 -11 -131 -72 -242 -135 l-203 -115 0 -291 c0 -160 2
-288 5 -285 3 3 34 71 69 151 96 222 220 429 364 610 79 99 79 103 7 65z"/>
</g>
</svg>
