<?xml version="1.0" standalone="no"?>
<!DOCTYPE svg PUBLIC "-//W3C//DTD SVG 20010904//EN"
 "http://www.w3.org/TR/2001/REC-SVG-20010904/DTD/svg10.dtd">
<svg version="1.0" xmlns="http://www.w3.org/2000/svg"
 width="162.000000pt" height="175.000000pt" viewBox="0 0 162.000000 175.000000"
 preserveAspectRatio="xMidYMid meet">

<g transform="translate(0.000000,175.000000) scale(0.100000,-0.100000)"
fill="#fff" stroke="none">
<path d="M645 1736 c-37 -17 -80 -62 -94 -99 -6 -16 -11 -86 -11 -157 l0 -128
-134 -4 c-156 -4 -178 -13 -210 -90 -17 -41 -17 -50 -5 -89 12 -39 27 -54 120
-122 l105 -79 -28 -55 c-45 -90 -34 -162 37 -241 l45 -50 0 -146 c0 -87 -4
-146 -10 -146 -18 0 -83 -65 -96 -97 -9 -20 -14 -71 -14 -133 l0 -100 465 0
465 0 0 100 c0 63 -5 113 -14 133 -16 38 -61 82 -98 96 l-28 11 0 138 0 138
48 50 c79 81 92 182 37 266 l-24 37 100 72 c55 39 108 83 117 97 24 37 21 112
-8 151 -35 51 -72 61 -215 61 l-125 0 0 129 c0 71 -5 142 -11 158 -14 38 -57
83 -96 99 -44 19 -276 19 -318 0z m322 -89 l28 -27 3 -170 3 -170 157 0 c179
0 202 -7 202 -63 0 -18 -4 -38 -8 -44 -5 -7 -123 -96 -263 -198 -171 -125
-262 -185 -279 -185 -16 0 -115 66 -287 191 -256 185 -263 191 -263 225 0 21
8 42 20 54 18 18 33 20 174 20 l155 0 3 169 c4 229 7 232 205 228 119 -2 123
-3 150 -30z m-360 -819 c147 -107 186 -124 241 -105 20 7 95 55 166 107 l128
93 19 -24 c48 -62 25 -154 -50 -207 l-40 -27 -1 -162 0 -163 -265 0 -265 0 0
161 0 160 -49 48 c-63 61 -73 104 -42 167 11 24 24 44 27 44 3 0 62 -41 131
-92z m570 -590 c23 -24 28 -38 31 -98 l4 -70 -397 0 -397 0 4 69 c4 72 20 104
63 122 11 4 165 7 342 6 l323 -2 27 -27z"/>
</g>
</svg>
